HIERARCHY
ROOT Hips
{
	OFFSET 0.000000 97.167313 0.000000
	CHANNELS 6 Xposition Yposition Zposition Xrotation Yrotation Zrotation
	JOINT Spine
	{
		OFFSET 0.000000 13.784798 0.064400
		CHANNELS 3 Xrotation Yrotation Zrotation
		JOINT Spine1
		{
			OFFSET 0.000000 12.037903 0.404700
			CHANNELS 3 Xrotation Yrotation Zrotation
			JOINT Spine2
			{
				OFFSET 0.000000 17.795601 0.420200
				CHANNELS 3 Xrotation Yrotation Zrotation
				JOINT Neck
				{
					OFFSET 0.000000 39.131302 11.954600
					CHANNELS 3 Xrotation Yrotation Zrotation
					JOINT Head
					{
						OFFSET 0.000000 14.456192 15.627699
						CHANNELS 3 Xrotation Yrotation Zrotation
						JOINT HeadTop_End
						{
							OFFSET 0.000000 15.703506 7.603401
							CHANNELS 3 Xrotation Yrotation Zrotation
							End Site
							{
								OFFSET 0.000000 17.447403 0.000000
							}
						}
					}
				}
				JOINT LeftShoulder
				{
					OFFSET 17.399500 24.608795 1.168800
					CHANNELS 3 Xrotation Yrotation Zrotation
					JOINT LeftArm
					{
						OFFSET 18.980635 5.765305 1.818600
						CHANNELS 3 Xrotation Yrotation Zrotation
						JOINT LeftForeArm
						{
							OFFSET 49.290169 0.000000 0.000000
							CHANNELS 3 Xrotation Yrotation Zrotation
							JOINT LeftHand
							{
								OFFSET 31.562012 0.000000 0.000000
								CHANNELS 3 Xrotation Yrotation Zrotation
								JOINT LeftHandThumb1
								{
									OFFSET 6.133995 -4.388519 7.076070
									CHANNELS 3 Xrotation Yrotation Zrotation
									JOINT LeftHandThumb2
									{
										OFFSET 6.037666 -3.485840 3.485847
										CHANNELS 3 Xrotation Yrotation Zrotation
										JOINT LeftHandThumb3
										{
											OFFSET 6.496506 -3.750763 3.750761
											CHANNELS 3 Xrotation Yrotation Zrotation
											JOINT LeftHandThumb4
											{
												OFFSET 5.616882 -3.242905 3.242910
												CHANNELS 3 Xrotation Yrotation Zrotation
												End Site
												{
													OFFSET -1.254608 7.132141 0.375429
												}
											}
										}
									}
								}
								JOINT LeftHandPinky1
								{
									OFFSET 18.920792 -0.453171 -11.426712
									CHANNELS 3 Xrotation Yrotation Zrotation
									JOINT LeftHandPinky2
									{
										OFFSET 4.919586 0.000000 0.000000
										CHANNELS 3 Xrotation Yrotation Zrotation
										JOINT LeftHandPinky3
										{
											OFFSET 5.233047 0.000000 0.000000
											CHANNELS 3 Xrotation Yrotation Zrotation
											JOINT LeftHandPinky4
											{
												OFFSET 5.571716 0.000000 0.000000
												CHANNELS 3 Xrotation Yrotation Zrotation
												End Site
												{
													OFFSET -3.459808 4.342407 -0.466164
												}
											}
										}
									}
								}
								JOINT LeftHandRing1
								{
									OFFSET 22.726120 -0.094986 -6.500475
									CHANNELS 3 Xrotation Yrotation Zrotation
									JOINT LeftHandRing2
									{
										OFFSET 6.408615 0.000000 0.000000
										CHANNELS 3 Xrotation Yrotation Zrotation
										JOINT LeftHandRing3
										{
											OFFSET 6.150223 0.000000 0.000000
											CHANNELS 3 Xrotation Yrotation Zrotation
											JOINT LeftHandRing4
											{
												OFFSET 6.145386 0.000000 0.000000
												CHANNELS 3 Xrotation Yrotation Zrotation
												End Site
												{
													OFFSET -3.671402 4.923981 -0.202372
												}
											}
										}
									}
								}
								JOINT LeftHandMiddle1
								{
									OFFSET 23.373947 0.000000 0.000001
									CHANNELS 3 Xrotation Yrotation Zrotation
									JOINT LeftHandMiddle2
									{
										OFFSET 6.996567 0.000000 0.000000
										CHANNELS 3 Xrotation Yrotation Zrotation
										JOINT LeftHandMiddle3
										{
											OFFSET 7.015945 0.000000 0.000000
											CHANNELS 3 Xrotation Yrotation Zrotation
											JOINT LeftHandMiddle4
											{
												OFFSET 7.721573 0.000000 0.000000
												CHANNELS 3 Xrotation Yrotation Zrotation
												End Site
												{
													OFFSET -4.651108 6.158463 0.251582
												}
											}
										}
									}
								}
								JOINT LeftHandIndex1
								{
									OFFSET 21.310577 -0.490082 6.209344
									CHANNELS 3 Xrotation Yrotation Zrotation
									JOINT LeftHandIndex2
									{
										OFFSET 7.536453 0.000000 0.000000
										CHANNELS 3 Xrotation Yrotation Zrotation
										JOINT LeftHandIndex3
										{
											OFFSET 7.512344 0.000000 0.000000
											CHANNELS 3 Xrotation Yrotation Zrotation
											JOINT LeftHandIndex4
											{
												OFFSET 10.212402 0.000000 0.000001
												CHANNELS 3 Xrotation Yrotation Zrotation
												End Site
												{
													OFFSET -5.180801 8.690506 1.388433
												}
											}
										}
									}
								}
							}
						}
					}
				}
				JOINT RightShoulder
				{
					OFFSET -17.399500 24.608795 1.168800
					CHANNELS 3 Xrotation Yrotation Zrotation
					JOINT RightArm
					{
						OFFSET -18.980635 5.765305 1.818600
						CHANNELS 3 Xrotation Yrotation Zrotation
						JOINT RightForeArm
						{
							OFFSET -49.290169 0.000000 0.000000
							CHANNELS 3 Xrotation Yrotation Zrotation
							JOINT RightHand
							{
								OFFSET -31.562012 0.000000 0.000000
								CHANNELS 3 Xrotation Yrotation Zrotation
								JOINT RightHandThumb1
								{
									OFFSET -6.133995 -4.388519 7.076070
									CHANNELS 3 Xrotation Yrotation Zrotation
									JOINT RightHandThumb2
									{
										OFFSET -6.037666 -3.485840 3.485847
										CHANNELS 3 Xrotation Yrotation Zrotation
										JOINT RightHandThumb3
										{
											OFFSET -6.496506 -3.750763 3.750761
											CHANNELS 3 Xrotation Yrotation Zrotation
											JOINT RightHandThumb4
											{
												OFFSET -5.616882 -3.242905 3.242910
												CHANNELS 3 Xrotation Yrotation Zrotation
												End Site
												{
													OFFSET 1.254608 7.132141 0.375429
												}
											}
										}
									}
								}
								JOINT RightHandIndex1
								{
									OFFSET -21.310577 -0.490082 6.209344
									CHANNELS 3 Xrotation Yrotation Zrotation
									JOINT RightHandIndex2
									{
										OFFSET -7.536453 0.000000 0.000000
										CHANNELS 3 Xrotation Yrotation Zrotation
										JOINT RightHandIndex3
										{
											OFFSET -7.512344 0.000000 0.000000
											CHANNELS 3 Xrotation Yrotation Zrotation
											JOINT RightHandIndex4
											{
												OFFSET -10.212402 0.000000 0.000001
												CHANNELS 3 Xrotation Yrotation Zrotation
												End Site
												{
													OFFSET 5.180801 8.690506 1.388433
												}
											}
										}
									}
								}
								JOINT RightHandMiddle1
								{
									OFFSET -23.373947 0.000000 0.000001
									CHANNELS 3 Xrotation Yrotation Zrotation
									JOINT RightHandMiddle2
									{
										OFFSET -6.996567 0.000000 0.000000
										CHANNELS 3 Xrotation Yrotation Zrotation
										JOINT RightHandMiddle3
										{
											OFFSET -7.015945 0.000000 0.000000
											CHANNELS 3 Xrotation Yrotation Zrotation
											JOINT RightHandMiddle4
											{
												OFFSET -7.721573 0.000000 0.000000
												CHANNELS 3 Xrotation Yrotation Zrotation
												End Site
												{
													OFFSET 4.651108 6.158463 0.251582
												}
											}
										}
									}
								}
								JOINT RightHandRing1
								{
									OFFSET -22.726120 -0.094986 -6.500475
									CHANNELS 3 Xrotation Yrotation Zrotation
									JOINT RightHandRing2
									{
										OFFSET -6.408615 0.000000 0.000000
										CHANNELS 3 Xrotation Yrotation Zrotation
										JOINT RightHandRing3
										{
											OFFSET -6.150223 0.000000 0.000000
											CHANNELS 3 Xrotation Yrotation Zrotation
											JOINT RightHandRing4
											{
												OFFSET -6.145386 0.000000 0.000000
												CHANNELS 3 Xrotation Yrotation Zrotation
												End Site
												{
													OFFSET 3.671402 4.923981 -0.202372
												}
											}
										}
									}
								}
								JOINT RightHandPinky1
								{
									OFFSET -18.920792 -0.453171 -11.426712
									CHANNELS 3 Xrotation Yrotation Zrotation
									JOINT RightHandPinky2
									{
										OFFSET -4.919586 0.000000 0.000000
										CHANNELS 3 Xrotation Yrotation Zrotation
										JOINT RightHandPinky3
										{
											OFFSET -5.233047 0.000000 0.000000
											CHANNELS 3 Xrotation Yrotation Zrotation
											JOINT RightHandPinky4
											{
												OFFSET -5.571716 0.000000 0.000000
												CHANNELS 3 Xrotation Yrotation Zrotation
												End Site
												{
													OFFSET 3.459808 4.342407 -0.466164
												}
											}
										}
									}
								}
							}
						}
					}
				}
			}
		}
	}
	JOINT LeftUpLeg
	{
		OFFSET 19.899099 -7.885101 -3.429500
		CHANNELS 3 Xrotation Yrotation Zrotation
		JOINT LeftLeg
		{
			OFFSET 1.745560 -36.997807 10.304700
			CHANNELS 3 Xrotation Yrotation Zrotation
			JOINT LeftFoot
			{
				OFFSET -1.745558 -29.803308 -13.615400
				CHANNELS 3 Xrotation Yrotation Zrotation
				JOINT LeftToeBase
				{
					OFFSET 1.181900 -18.539904 15.226099
					CHANNELS 3 Xrotation Yrotation Zrotation
					JOINT LeftToe_End
					{
						OFFSET -0.863701 1.402801 16.534700
						CHANNELS 3 Xrotation Yrotation Zrotation
						End Site
						{
							OFFSET 0.000000 16.616566 0.000000
						}
					}
				}
			}
		}
	}
	JOINT RightUpLeg
	{
		OFFSET -19.899099 -7.885101 -3.429500
		CHANNELS 3 Xrotation Yrotation Zrotation
		JOINT RightLeg
		{
			OFFSET -1.745560 -36.997807 10.304700
			CHANNELS 3 Xrotation Yrotation Zrotation
			JOINT RightFoot
			{
				OFFSET 1.745558 -29.803308 -13.615400
				CHANNELS 3 Xrotation Yrotation Zrotation
				JOINT RightToeBase
				{
					OFFSET -1.181900 -18.539904 15.226099
					CHANNELS 3 Xrotation Yrotation Zrotation
					JOINT RightToe_End
					{
						OFFSET 0.863701 1.402801 16.534700
						CHANNELS 3 Xrotation Yrotation Zrotation
						End Site
						{
							OFFSET 0.000000 16.616566 0.000000
						}
					}
				}
			}
		}
	}
}
MOTION
Frames: 4
Frame Time: 0.033333
-3.290407 71.767235 2.095553 11.715234 -49.551974 11.572999 10.987076 2.848453 -2.326003 6.100711 5.566540 -4.284680 -5.786918 6.328148 -3.046186 2.319053 9.363317 -0.265467 -4.147096 23.161902 -3.523280 0.000000 0.000000 0.000000 -1.875336 -16.181686 -2.870470 -10.644683 2.164675 -45.510623 -22.862371 -25.786240 -15.871645 2.491035 -2.511875 6.860436 18.457975 -9.513785 13.216590 -1.150198 11.255330 -8.400829 5.706536 8.483122 -0.820715 0.000001 0.000001 -0.000002 2.010399 6.305953 -22.386529 -0.815368 -0.210774 -16.746470 -2.232646 0.018992 -34.673865 0.000000 0.000000 -0.000002 3.024635 7.938903 -14.103470 -0.708026 -0.566218 -18.895752 -0.726357 -0.705012 -22.058408 -0.000002 0.000002 0.000003 1.884733 4.663376 -4.597379 0.476695 -1.009838 -12.986404 0.628517 -1.346619 -16.554019 -0.000000 -0.000001 -0.000003 -1.232786 -5.771970 -0.192340 0.133937 -0.197648 -4.602132 0.055763 -0.448206 -7.568212 -0.000004 0.000003 0.000002 -5.074636 24.343805 1.482713 6.642370 -34.733797 57.610399 -21.031961 44.833802 19.961622 -0.087229 35.608498 7.474251 55.149587 18.649548 -29.698308 -0.442550 -14.180546 7.313159 21.666938 -29.244527 9.142353 0.000000 0.000000 0.000001 5.673401 7.585016 36.844171 1.050431 3.824521 68.900250 0.499581 3.026043 62.196447 -0.000002 0.000003 -0.000001 -0.125681 1.886098 45.000753 -1.169033 3.204655 68.417684 -0.936418 1.813614 41.107538 -0.000000 -0.000000 -0.000001 -5.312005 1.216639 58.508801 -0.745219 1.667569 48.011281 -0.816484 1.840595 53.666565 -0.000003 0.000000 -0.000002 -7.756808 -9.376446 47.264004 -0.526048 1.541599 45.600501 -0.508184 0.803475 24.986623 0.000000 -0.000001 0.000004 -67.366545 23.100258 46.058578 44.372935 -22.217979 2.151785 7.292888 2.062668 -14.543529 -0.694489 -6.107053 1.235090 0.000000 0.000000 0.000000 -26.334628 0.642702 -35.036039 51.313873 9.953681 -3.035000 -31.274306 -8.054203 28.067703 0.528305 2.970079 1.471343 -0.000000 0.000004 -0.000000 
-2.102653 72.144402 3.709120 11.311855 -50.914778 11.065612 10.845482 2.843859 -2.087924 6.211053 5.531379 -4.085916 -5.634569 6.080631 -2.847560 2.506704 8.998882 0.963303 -3.946307 23.543609 -4.816443 0.000000 0.000000 -0.000000 -1.898946 -15.838094 -3.026467 -10.916592 3.036732 -45.852703 -21.654536 -24.915526 -15.679239 2.318331 -2.084230 6.697811 18.431662 -9.520765 13.267332 -1.205843 11.169456 -8.368940 5.706530 8.483109 -0.820710 0.000003 -0.000002 -0.000003 2.057238 6.374988 -22.255031 -0.813889 -0.205806 -16.609762 -2.230213 0.022525 -34.537053 0.000001 0.000001 -0.000004 3.025545 7.942505 -14.009661 -0.706794 -0.562724 -18.801289 -0.724978 -0.701491 -21.963991 0.000001 -0.000003 0.000005 1.785767 4.640247 -4.532340 0.477188 -1.007130 -12.931003 0.629125 -1.344546 -16.498580 0.000000 0.000001 0.000004 -1.232800 -5.770123 -0.145177 0.134124 -0.195826 -4.554972 0.055972 -0.446341 -7.521039 -0.000006 -0.000001 0.000003 -5.162248 24.117338 1.733596 7.217174 -34.742901 57.034832 -22.411814 42.270094 20.016532 -0.144766 37.048882 8.544451 55.149587 18.649545 -29.698311 -0.442552 -14.180550 7.313155 21.666940 -29.244527 9.142354 -0.000001 -0.000001 0.000001 5.673398 7.585017 36.844171 1.050438 3.824526 68.900244 0.499579 3.026041 62.196447 -0.000000 0.000000 -0.000001 -0.125680 1.886098 45.000749 -1.169032 3.204655 68.417684 -0.936420 1.813614 41.107541 -0.000000 0.000001 -0.000008 -5.312010 1.216639 58.508801 -0.745218 1.667566 48.011288 -0.816484 1.840593 53.666565 -0.000006 0.000000 -0.000002 -7.756811 -9.376443 47.264011 -0.526040 1.541603 45.600498 -0.508185 0.803474 24.986620 -0.000000 -0.000001 0.000000 -66.550187 23.742986 46.412556 46.740730 -21.516182 1.628747 4.399701 2.359714 -12.651140 -0.700689 -6.102955 1.244958 0.000000 0.000001 -0.000000 -25.473139 1.115989 -35.484632 48.350861 10.128499 -3.667671 -28.283918 -8.997879 30.041197 0.888217 4.174515 1.281119 -0.000000 -0.000001 0.000000 
-0.585487 72.755585 5.439076 11.154115 -52.882374 10.766750 10.475114 2.813570 -1.776457 6.431334 5.341322 -3.845163 -5.301525 5.369788 -2.622324 2.568981 8.163870 2.542383 -4.004234 23.257209 -5.915167 -0.000000 0.000000 -0.000000 -1.914492 -15.246483 -3.208162 -11.410818 4.730146 -46.239254 -20.337926 -23.776870 -15.687840 2.262076 -1.887499 6.695179 18.364359 -9.538613 13.396874 -1.350753 10.953334 -8.279388 5.706526 8.483106 -0.820739 0.000002 -0.000000 -0.000002 2.175077 6.552798 -21.919576 -0.813123 -0.193119 -16.260389 -2.224021 0.029562 -34.187692 0.000000 0.000002 -0.000002 3.039557 7.951514 -13.771926 -0.703778 -0.553766 -18.560085 -0.721317 -0.692560 -21.722720 -0.000005 -0.000001 0.000008 1.533169 4.580045 -4.366579 0.478461 -0.997776 -12.789493 0.630690 -1.339333 -16.356847 0.000001 0.000000 0.000004 -1.232765 -5.765500 -0.024638 0.134514 -0.191091 -4.434424 0.056614 -0.441615 -7.400524 -0.000003 0.000002 -0.000001 -5.246646 23.749259 2.050737 6.457521 -34.285402 56.086047 -23.251159 39.750407 19.622505 0.220756 37.653040 9.654127 55.149587 18.649543 -29.698311 -0.442552 -14.180548 7.313157 21.666936 -29.244534 9.142356 -0.000000 0.000000 0.000001 5.673403 7.585018 36.844175 1.050435 3.824524 68.900250 0.499577 3.026033 62.196447 -0.000002 -0.000005 -0.000002 -0.125679 1.886097 45.000749 -1.169030 3.204656 68.417684 -0.936419 1.813616 41.107541 0.000002 0.000001 -0.000004 -5.312004 1.216637 58.508794 -0.745218 1.667566 48.011288 -0.816481 1.840594 53.666569 -0.000001 -0.000003 -0.000002 -7.756804 -9.376448 47.264001 -0.526044 1.541599 45.600498 -0.508192 0.803475 24.986625 -0.000001 -0.000001 0.000004 -65.264220 24.806986 46.676656 48.746964 -20.571883 0.957551 1.229924 2.859708 -10.672323 -0.720344 -6.087608 1.281157 -0.000000 -0.000002 -0.000000 -25.019377 1.648974 -36.142636 44.434977 10.485493 -4.015373 -24.844965 -9.336759 32.049829 0.809320 5.333094 1.037577 0.000000 0.000003 -0.000000 
1.001708 73.395355 6.834341 11.457048 -55.095222 10.894004 9.874602 2.763721 -1.408749 6.717384 5.085073 -3.587324 -4.826091 4.336929 -2.382767 2.616215 7.004015 4.182490 -4.416536 22.341329 -6.655788 0.000000 0.000000 -0.000000 -1.928227 -15.208480 -3.284729 -12.000026 7.722150 -46.629783 -18.981169 -22.555448 -16.006007 2.243230 -1.849986 7.047447 18.260101 -9.566272 13.596947 -1.575027 10.619464 -8.142166 5.706523 8.483098 -0.820725 0.000003 -0.000000 -0.000003 2.353355 6.831046 -21.402119 -0.811614 -0.173438 -15.720119 -2.224801 0.037875 -33.647144 -0.000001 0.000000 -0.000002 3.059182 7.959565 -13.403891 -0.699153 -0.539916 -18.187049 -0.715816 -0.678687 -21.349667 0.000001 -0.000001 0.000001 1.143337 4.484192 -4.111445 0.480353 -0.985205 -12.570570 0.633081 -1.325562 -16.137988 -0.000007 -0.000003 0.000004 -1.232770 -5.762305 0.161742 0.135089 -0.183742 -4.248093 0.057602 -0.434357 -7.214238 0.000001 0.000001 0.000001 -5.338912 23.478675 2.322143 5.725524 -33.787669 55.525856 -24.184706 38.525597 19.750228 1.152672 37.027470 9.935670 55.149587 18.649545 -29.698308 -0.442553 -14.180542 7.313159 21.666940 -29.244527 9.142354 -0.000000 -0.000001 0.000001 5.673404 7.585017 36.844171 1.050435 3.824521 68.900244 0.499581 3.026038 62.196454 -0.000000 0.000000 -0.000003 -0.125677 1.886099 45.000746 -1.169028 3.204649 68.417684 -0.936418 1.813615 41.107545 0.000000 0.000001 -0.000008 -5.312004 1.216638 58.508801 -0.745218 1.667566 48.011285 -0.816487 1.840595 53.666572 0.000000 -0.000001 0.000002 -7.756805 -9.376451 47.264004 -0.526044 1.541595 45.600501 -0.508188 0.803476 24.986625 -0.000001 0.000000 0.000004 -64.060761 26.003854 47.028844 49.977157 -19.575385 0.032904 -1.415392 3.352217 -8.893783 -0.748510 -6.064304 1.331965 0.000000 0.000000 0.000000 -25.550691 2.185503 -37.371797 39.629290 12.012179 -3.843773 -19.666215 -9.091573 36.038776 0.960221 6.276877 0.793749 0.000000 -0.000002 0.000000 
